# xmcd
#
# Track frame offsets: 
#        180
#        21955
#        34798
#        56533
#        69353
#        82471
#        104209
#        117323
#        131666
#        148281
#        162383
#        191016
#        207786
#        221121
#        237604
#
# Disc length: 3742 seconds
#
# Revision: 0
# Processed by: cddbd v1.5.1PL0 Copyright (c) Steve Scherf et al.
# Submitted via: ExactAudioCopy v0.95a4
#
DISCID=f40e9c0f
DTITLE=Tom Morrell and The Time-Warp Top Hands - No Peddlars Allowed (Ho
DTITLE=w The West Was Swung Volume 7)(
DYEAR=1900
DGENRE=Country
TTITLE0=Black Jack
TTITLE1=Steelin' The Blues
TTITLE2=Blue Steel Blues
TTITLE3=Station Break
TTITLE4=Pickled Beats
TTITLE5=Getting Sentimental Over You
TTITLE6=Under The Double Eagle
TTITLE7=Wear A Lei
TTITLE8=Teardrops In My Heart
TTITLE9=Twinkle Twinkle Little Star
TTITLE10=Captain Weird Goes Shopping
TTITLE11=My Best To You
TTITLE12=This Is Southland
TTITLE13=Liebestraum
TTITLE14=Halfway To Nothin'
EXTD=
EXTT0=
EXTT1=
EXTT2=
EXTT3=
EXTT4=
EXTT5=
EXTT6=
EXTT7=
EXTT8=
EXTT9=
EXTT10=
EXTT11=
EXTT12=
EXTT13=
EXTT14=
PLAYORDER=
